<?xml version="1.0" encoding="UTF-8" standalone="no"?>
<!-- Created with Inkscape (http://www.inkscape.org/) -->

<svg
   width="53.612514mm"
   height="65.055222mm"
   viewBox="0 0 202.62998 245.87801"
   version="1.1"
   id="svg1"
   xml:space="preserve"
   xmlns="http://www.w3.org/2000/svg"
   xmlns:svg="http://www.w3.org/2000/svg"><defs
     id="defs1" /><g
     id="layer1"
     transform="translate(-293.99357,-401.78036)"><g
       id="OBJECTS"
       transform="translate(144.95688,342.17647)">
	<g
   id="g9"
   transform="translate(219.5948,20.812035)">
		
		
		
		
		
		
		
		
		<g
   id="g1"
   transform="translate(-219.24312,-35.187168)"><path
     style="fill:#179ed1;fill-opacity:1"
     d="m 284.237,78.02 c -0.456,2.307 0.58,4.944 9.515,9.958 0.297,0.167 0.599,0.335 0.904,0.505 l 0.548,6.684 -0.664,-0.417 c -0.272,-0.171 -0.63,-0.089 -0.801,0.183 l -0.366,0.583 c -0.171,0.272 -0.089,0.63 0.183,0.801 l 1.836,1.152 0.553,6.748 -0.407,-0.256 c -0.272,-0.171 -0.63,-0.089 -0.801,0.183 l -0.366,0.583 c -0.171,0.272 -0.089,0.63 0.183,0.801 l 1.579,0.992 0.444,5.413 3.84,2.41 2.801,-21.254 c 4.83,2.534 9.579,4.939 12.91,6.607 l 0.357,7.033 2.554,1.603 1.791,-6.768 2.152,0.488 -1.375,-1.726 5.317,-4.554 -2.554,-1.603 -6.488,2.735 c -2.95,-2.274 -7.181,-5.507 -11.561,-8.756 l 17.925,-11.759 -3.84,-2.41 -5.068,1.953 -1.579,-0.992 c -0.272,-0.171 -0.63,-0.089 -0.801,0.183 l -0.366,0.583 c -0.171,0.272 -0.089,0.63 0.183,0.801 l 0.407,0.256 -6.318,2.434 -1.836,-1.153 c -0.272,-0.171 -0.63,-0.089 -0.801,0.183 l -0.366,0.583 c -0.171,0.272 -0.089,0.63 0.183,0.801 l 0.663,0.416 -6.258,2.411 c -0.285,-0.201 -0.568,-0.399 -0.847,-0.595 -8.399,-5.868 -11.224,-5.655 -13.104,-4.241 -0.135,0.102 -0.229,0.252 -0.261,0.418 z"
     id="path1" /><path
     style="fill:#fe5b5b;fill-opacity:1"
     d="m 330.863,122.23 c -0.217,6.917 -2.633,14.183 -7.85,20.399 -11.15,13.316 -36.216,24.733 -76.481,39.082 -42.815,15.25 -88.181,30.966 -90.764,62.948 -4.55,-11.533 -7.083,-24.083 -7.083,-37.216 0,-55.965 45.365,-101.33 101.313,-101.33 2.017,0 4,0.067 5.983,0.183 25.149,1.467 47.815,12.116 64.748,28.632 3.967,-2.665 8.384,-6.815 10.134,-12.698 z"
     id="path2" /><path
     style="fill:#f77777;fill-opacity:1"
     d="m 229.549,319.857 c -68.448,-35.316 -38.049,-79.148 30.499,-109.78 -72.564,46.382 -54.332,85.747 -30.499,109.78 z"
     id="path3" /><path
     style="fill:#179ed1;fill-opacity:1"
     d="m 312.813,163.262 c -0.6,0.517 -1.233,1.017 -1.867,1.533 -39.982,33.182 -94.031,45.782 -121.93,77.331 -21.566,24.399 -14.35,41.432 -10.683,47.948 -21.266,-18.516 -20.549,-48.565 12.633,-69.081 33.183,-20.499 76.032,-30.766 121.847,-57.731 z"
     id="path4" /><path
     style="fill:#fb7575;fill-opacity:1"
     d="m 330.863,122.23 c -0.217,6.917 -2.633,14.183 -7.85,20.399 -11.15,13.316 -36.216,24.733 -76.481,39.082 -42.815,15.25 -88.181,30.966 -90.764,62.948 -4.55,-11.533 -7.083,-24.083 -7.083,-37.216 0,-55.965 45.365,-101.33 101.313,-101.33 2.017,0 4,0.067 5.983,0.183 -45.515,0.083 -89.247,43.399 -84.764,86.814 12.333,-37.032 103.297,-31.966 149.512,-58.182 3.967,-2.665 8.384,-6.815 10.134,-12.698 z"
     id="path5" /><path
     style="fill:#179ed1;fill-opacity:1"
     d="m 342.545,166.204 c 9.496,-26.073 2.222,-49.666 -16.548,-61.514 38.58,44.679 -28.867,85.319 -79.147,127.088 -26.155,21.728 -30.606,57.771 -3.481,71.611 8.275,4.222 17.832,5.167 26.935,3.315 46.223,-9.404 81.011,-50.266 81.011,-99.265 0,-14.689 -3.142,-28.638 -8.77,-41.235 z"
     id="path6" /><path
     style="fill:#128cba;fill-opacity:1"
     d="m 342.545,166.204 c -14.421,34.724 -82.572,80.208 -90.589,97.063 -12.34,25.944 21.489,36.595 47.847,17.021 -49.975,-2.979 42.054,-44.812 50.99,-83.109"
     id="path7" /><path
     style="fill:#fb5e5e;fill-opacity:1"
     d="m 229.549,319.857 c -59.015,-46.515 -24.116,-77.164 30.499,-109.78 -72.564,46.382 -54.332,85.747 -30.499,109.78 z"
     id="path8" /><path
     style="fill:#128cba;fill-opacity:1"
     d="m 310.947,164.795 c -39.982,33.182 -94.031,45.782 -121.93,77.331 -21.566,24.399 -14.35,41.432 -10.683,47.948 -45.765,-67.414 85.764,-87.963 132.613,-125.279 z"
     id="path9" /></g>
	</g>
	
	
		
	
</g></g></svg>
